<?xml version="1.0" encoding="UTF-8" standalone="no"?>
<svg xmlns="http://www.w3.org/2000/svg" xmlns:xlink="http://www.w3.org/1999/xlink" version="1.1" width="1060" height="740" viewBox="233.5 193.5 1060 740"><g id="document" fill="#ffffff" fill-rule="nonzero" font-family="none" font-weight="none" font-size="none"><rect x="154.19811" y="130.74324" transform="scale(1.51429,1.48)" width="700" height="500" id="Shape-1-1"/></g><g fill="none" fill-rule="evenodd" stroke="none" stroke-width="1" stroke-linecap="butt" stroke-linejoin="miter" stroke-miterlimit="10" font-family="none" font-weight="none" font-size="none"><g id="stage"><g id="layer1-1"><g id="Group-1"><g id="Group-1-1" fill="#173046"><path d="M651.95676,562.96975c-7.297,-12.791 -12.297,-25.791 -15,-39c-3.092,-19.408 -0.259,-38.074 8.5,-56c6.139,-13.117 13.472,-25.45 22,-37c13.356,-15.854 26.522,-31.854 39.5,-48c-13.085,-23.544 -11.919,-46.21 3.5,-68c5.857,-6.344 12.691,-11.344 20.5,-15c5.266,-19.3 10.433,-38.633 15.5,-58c3.237,-6.234 6.904,-6.567 11,-1c5.489,19.623 10.822,39.29 16,59c29.924,16.193 39.59,40.526 29,73c-1.833,3.667 -3.667,7.333 -5.5,11c10.605,13.442 21.772,26.442 33.5,39c13.213,16.415 23.879,34.415 32,54c14.561,49.322 0.728,88.488 -41.5,117.5c-7.297,4.232 -14.797,8.065 -22.5,11.5c-1.759,17.177 -10.592,29.177 -26.5,36c-2.009,6.526 -4.509,12.859 -7.5,19c-11.869,10.758 -21.203,8.758 -28,-6c-1.178,-4.38 -2.512,-8.713 -4,-13c-8.91,-4.582 -16.244,-10.915 -22,-19c-2.752,-5.338 -4.418,-11.005 -5,-17c-18.6,-7.636 -34.6,-18.969 -48,-34c-2.358,-2.722 -4.191,-5.722 -5.5,-9z" id="Path-1"/></g><g id="Group-1-2" fill="#0c1728"><path d="M651.95676,562.96975c-8.713,-11.459 -13.713,-24.459 -15,-39c2.703,13.209 7.703,26.209 15,39z" id="Path-1-1"/></g><g id="Group-1-3" fill="#1b3349"><path d="M665.95676,682.96975c17.894,0.371 24.394,9.038 19.5,26c-8.444,9.378 -17.777,10.378 -28,3c-7.782,-12.819 -4.948,-22.486 8.5,-29z" id="Path-1-2"/></g><g id="Group-1-4" fill="#1c364b"><path d="M930.95676,842.96975c-0.825,-4.147 -1.325,-8.481 -1.5,-13c-11.299,15.391 -26.465,21.558 -45.5,18.5c-22.944,-4.943 -37.444,-18.777 -43.5,-41.5c-6.426,-26.7 0.074,-49.533 19.5,-68.5c18.209,-12.326 37.209,-13.659 57,-4c4.133,3.131 7.966,6.631 11.5,10.5c0.399,-0.228 0.565,-0.562 0.5,-1c0.997,-18.826 1.33,-37.826 1,-57c9.667,0 19.333,0 29,0c0,53 0,106 0,159c-9,0 -18,0 -27,0c0.16,-1.699 -0.006,-3.366 -0.5,-5c-0.464,0.594 -0.631,1.261 -0.5,2z" id="Path-1-3"/></g><g id="Group-1-5" fill="#1c354b"><path d="M489.95676,726.96975c-0.934,1.068 -1.268,2.401 -1,4c-7.528,0.126 -14.861,0.793 -22,2c-2.107,0.968 -4.441,1.302 -7,1c-1.424,-8.937 -6.424,-15.103 -15,-18.5c-12.106,-3.93 -23.772,-2.93 -35,3c-9.493,9.603 -9.159,18.936 1,28c2,1 4,2 6,3c14.607,4.536 29.274,8.869 44,13c6.505,2.417 12.505,5.583 18,9.5c-0.438,-0.065 -0.772,0.101 -1,0.5c4.646,3.642 8.146,8.142 10.5,13.5c1.883,8.025 3.049,16.025 3.5,24c-5.15,19.316 -17.483,31.483 -37,36.5c-24.934,6.066 -48.268,2.399 -70,-11c-11.153,-8.807 -16.487,-20.307 -16,-34.5c3.667,0 7.333,0 11,0c5.81,0.99 11.81,1.323 18,1c0.052,2.846 1.052,5.18 3,7c10.143,11.998 23.143,16.831 39,14.5c12.523,-1.197 19.856,-7.864 22,-20c-0.824,-6.643 -4.158,-11.643 -10,-15c-18.761,-5.691 -37.428,-11.691 -56,-18c-19.093,-9.684 -26.926,-25.184 -23.5,-46.5c6.388,-20.378 20.221,-32.212 41.5,-35.5c22.734,-3.811 43.4,0.856 62,14c7.431,6.595 12.097,14.762 14,24.5z" id="Path-1-4"/></g><g id="Group-1-6" fill="#1c364b"><path d="M543.95676,831.96975c-0.999,18.257 -1.332,37.257 -1,57c-9.333,0 -18.667,0 -28,0c0,-52.333 0,-104.667 0,-157c9,0 18,0 27,0c-0.465,3.603 -0.132,5.603 1,6c0.817,2.469 1.317,5.135 1.5,8c11.478,-14.054 26.312,-19.887 44.5,-17.5c25.54,5.207 40.706,20.707 45.5,46.5c2.625,17.25 -0.042,33.583 -8,49c-13.103,19.13 -31.27,27.297 -54.5,24.5c-11.033,-2.681 -20.366,-8.181 -28,-16.5z" id="Path-1-5"/></g><g id="Group-1-7" fill="#1e374c"><path d="M816.95676,751.96975c-0.543,0.06 -0.876,0.393 -1,1c1.275,2.873 2.108,5.873 2.5,9c0.5,27.998 0.667,55.998 0.5,84c-9,0 -18,0 -27,0c0.167,-23.669 0,-47.336 -0.5,-71c-0.302,-3.745 -1.469,-7.078 -3.5,-10c-7.479,-10.107 -17.479,-13.607 -30,-10.5c-8.438,3.437 -13.605,9.604 -15.5,18.5c-0.168,24.837 -0.668,49.503 -1.5,74c0.167,-23.002 0,-46.002 -0.5,-69c-0.5,22.664 -0.667,45.331 -0.5,68c-9.333,0 -18.667,0 -28,0c0,-38 0,-76 0,-114c9,0 18,0 27,0c-0.321,5.195 0.013,10.195 1,15c18.035,-20.9 39.368,-24.733 64,-11.5c5.654,4.484 9.988,9.984 13,16.5z" id="Path-1-6"/></g><g id="Group-1-8" fill="#172134"><path d="M489.95676,726.96975c0,2 0,4 0,6c-7.667,0 -15.333,0 -23,0c7.139,-1.207 14.472,-1.874 22,-2c-0.268,-1.599 0.066,-2.932 1,-4z" id="Path-1-7"/></g><g id="Group-1-9" fill="#1c354b"><path d="M1146.95676,777.96975c-0.988,5.14 -1.321,10.474 -1,16c-28.074,-0.333 -55.408,0.001 -82,1c0,0.333 0,0.667 0,1c-0.575,14.59 6.091,24.09 20,28.5c6.717,0.756 13.383,0.589 20,-0.5c0.06,0.543 0.393,0.876 1,1c6.002,-2.165 10.669,-5.998 14,-11.5c8.353,-0.832 16.687,-0.665 25,0.5c-1.205,1.495 -1.205,2.828 0,4c-7.324,17.8 -20.658,27.967 -40,30.5c-22.799,3.069 -41.966,-3.765 -57.5,-20.5c-10.522,-15.77 -14.188,-33.103 -11,-52c6.162,-29.664 24.329,-45.664 54.5,-48c33.379,0.384 52.379,17.051 57,50z" id="Path-1-8"/></g><g id="Group-1-10" fill="#727e88"><path d="M685.95676,730.96975c-10,0 -20,0 -30,0c0,38.667 0,77.333 0,116c-0.999,-38.83 -1.332,-77.83 -1,-117c10.514,-0.328 20.847,0.006 31,1z" id="Path-1-9"/></g><g id="Group-1-11" fill="#fbfbf8"><path d="M1116.95676,776.96975c-17.667,0 -35.333,0 -53,0c0.532,-4.595 1.865,-8.929 4,-13c10.569,-13.389 23.569,-16.223 39,-8.5c7.895,5.278 11.229,12.445 10,21.5z" id="Path-1-10"/></g><g id="Group-1-12" fill="#fcfbf8"><path d="M584.95676,821.96975c-15.144,4.396 -27.478,0.396 -37,-12c-3.633,-10.351 -4.8,-21.018 -3.5,-32c5.571,-19.703 18.404,-27.536 38.5,-23.5c14.868,5.885 22.201,16.885 22,33c0.488,15.937 -6.178,27.437 -20,34.5z" id="Path-1-11"/></g><g id="Group-1-13" fill="#fcfbf8"><path d="M893.95676,752.96975c18.943,-1.622 30.777,6.712 35.5,25c0.993,9.139 0.326,18.139 -2,27c-7.031,15.143 -18.865,20.976 -35.5,17.5c-15.232,-6.77 -22.566,-18.603 -22,-35.5c0.161,-17.023 8.161,-28.356 24,-34z" id="Path-1-12"/></g><g id="Group-1-14" fill="#000b22"><path d="M685.95676,730.96975c0,38.667 0,77.333 0,116c-10,0 -20,0 -30,0c0,-38.667 0,-77.333 0,-116c10,0 20,0 30,0z" id="Path-1-13"/></g><g id="Group-1-15" fill="#1d384d"><path d="M656.95676,731.96975c9.333,0 18.667,0 28,0c0,38 0,76 0,114c-9.333,0 -18.667,0 -28,0c0,-38 0,-76 0,-114z" id="Path-1-14"/></g><g id="Group-1-16" fill="#061f37"><path d="M1067.95676,763.96975c-2.135,4.071 -3.468,8.405 -4,13c17.667,0 35.333,0 53,0c0.111,0.617 0.444,1.117 1,1.5c-18,0.667 -36,0.667 -54,0c-1.109,-5.055 -0.276,-9.888 2.5,-14.5c0.69,-1.238 1.19,-1.238 1.5,0z" id="Path-1-15"/></g><g id="Group-1-17" fill="#132034"><path d="M478.95676,771.96975c11.68,10.015 16.014,22.681 13,38c-0.451,-7.975 -1.617,-15.975 -3.5,-24c-2.354,-5.358 -5.854,-9.858 -10.5,-13.5c0.228,-0.399 0.562,-0.565 1,-0.5z" id="Path-1-16"/></g><g id="Group-1-18" fill="#01081c"><path d="M930.95676,842.96975c-0.131,-0.739 0.036,-1.406 0.5,-2c0.494,1.634 0.66,3.301 0.5,5c9,0 18,0 27,0c0,-53 0,-106 0,-159c-9.667,0 -19.333,0 -29,0c0.33,19.174 -0.003,38.174 -1,57c0,-19.333 0,-38.667 0,-58c10.333,0 20.667,0 31,0c0,53.667 0,107.333 0,161c-9.667,0 -19.333,0 -29,0c0,-1.333 0,-2.667 0,-4z" id="Path-1-17"/></g><g id="Group-1-19" fill="#000d26"><path d="M1146.95676,777.96975c0,1.333 0,2.667 0,4c0,4.333 0,8.667 0,13c-27.667,0 -55.333,0 -83,0c26.592,-0.999 53.926,-1.333 82,-1c-0.321,-5.526 0.012,-10.86 1,-16z" id="Path-1-18"/></g><g id="Group-1-20" fill="#435868"><path d="M1146.95676,781.96975c0.986,4.47 1.319,9.137 1,14c-28,0 -56,0 -84,0c0,-0.333 0,-0.667 0,-1c27.667,0 55.333,0 83,0c0,-4.333 0,-8.667 0,-13z" id="Path-1-19"/></g><g id="Group-1-21" fill="#192334"><path d="M400.95676,808.96975c-1.948,-1.82 -2.948,-4.154 -3,-7c-6.19,0.323 -12.19,-0.01 -18,-1c6.315,-0.61 12.649,-0.943 19,-1c0.667,3 1.333,6 2,9z" id="Path-1-20"/></g><g id="Group-1-22" fill="#5c6e7c"><path d="M1117.95676,811.96975c9.175,-1.322 18.508,-1.322 28,0c-0.124,0.607 -0.457,0.94 -1,1c-8.818,-0.993 -17.818,-1.327 -27,-1z" id="Path-1-21"/></g><g id="Group-1-23" fill="#051127"><path d="M1117.95676,811.96975c9.182,-0.327 18.182,0.007 27,1c-0.129,1.716 -0.462,3.383 -1,5c-1.205,-1.172 -1.205,-2.505 0,-4c-8.313,-1.165 -16.647,-1.332 -25,-0.5c-3.331,5.502 -7.998,9.335 -14,11.5c-0.607,-0.124 -0.94,-0.457 -1,-1c6.217,-2.219 10.884,-6.219 14,-12z" id="Path-1-22"/></g><g id="Group-1-24" fill="#0a192e"><path d="M547.95676,809.96975c9.522,12.396 21.856,16.396 37,12c-12.912,5.827 -24.746,3.16 -35.5,-8c-0.791,-1.245 -1.291,-2.578 -1.5,-4z" id="Path-1-23"/></g><g id="Group-1-25" fill="#0b2239"><path d="M984.95676,685.96975c10.333,0 20.667,0 31,0c0,53.667 0,107.333 0,161c-10.333,0 -20.667,0 -31,0c0,-53.667 0,-107.333 0,-161z" id="Path-1-24"/></g><g id="Group-1-26" fill="#1d384d"><path d="M986.95676,686.96975c9,0 18,0 27,0c0,53 0,106 0,159c-9,0 -18,0 -27,0c0,-53 0,-106 0,-159z" id="Path-1-25"/></g><g id="Group-1-27" fill="#00061c"><path d="M739.95676,746.96975c-0.987,-4.805 -1.321,-9.805 -1,-15c-9,0 -18,0 -27,0c0,38 0,76 0,114c9.333,0 18.667,0 28,0c-0.167,-22.669 0,-45.336 0.5,-68c0.5,22.998 0.667,45.998 0.5,69c-10,0 -20,0 -30,0c0,-38.667 0,-77.333 0,-116c9.667,0 19.333,0 29,0c0,5.333 0,10.667 0,16z" id="Path-1-26"/></g><g id="Group-1-28" fill="#0c2239"><path d="M816.95676,751.96975c1.938,4.081 3.104,8.415 3.5,13c0.5,27.331 0.667,54.665 0.5,82c-10.333,0 -20.667,0 -31,0c0.167,-25.336 0,-50.669 -0.5,-76c-0.813,-1.936 -1.313,-3.936 -1.5,-6c2.031,2.922 3.198,6.255 3.5,10c0.5,23.664 0.667,47.331 0.5,71c9,0 18,0 27,0c0.167,-28.002 0,-56.002 -0.5,-84c-0.392,-3.127 -1.225,-6.127 -2.5,-9c0.124,-0.607 0.457,-0.94 1,-1z" id="Path-1-27"/></g><g id="Group-1-29" fill="#00081e"><path d="M542.95676,737.96975c-1.132,-0.397 -1.465,-2.397 -1,-6c-9,0 -18,0 -27,0c0,52.333 0,104.667 0,157c9.333,0 18.667,0 28,0c-0.332,-19.743 0.001,-38.743 1,-57c0,19.333 0,38.667 0,58c-10,0 -20,0 -30,0c0,-53 0,-106 0,-159c9.667,0 19.333,0 29,0c0,2.333 0,4.667 0,7z" id="Path-1-28"/></g></g></g></g></g></svg>